<svg width="32" height="32" viewBox="0 0 32 32" fill="none" xmlns="http://www.w3.org/2000/svg">
<rect width="32" height="32" rx="16" fill="#F0F1F2"/>
<path d="M12.3989 16.3913C12.2716 16.3023 12.1208 16.25 11.9648 16.25C10.5638 16.25 9.37512 17.2661 9.17346 18.636L8.56154 22.7214C8.30703 24.4503 9.66382 26 11.432 26H20.6296C22.3977 26 23.7545 24.4503 23.5 22.7214L22.8881 18.636C22.6864 17.2661 21.4977 16.25 20.0967 16.25C19.9407 16.25 19.79 16.3023 19.6626 16.3913C18.6699 17.0847 17.4064 17.5 16.0308 17.5C14.6551 17.5 13.3917 17.0847 12.3989 16.3913Z" fill="#C9CBCD"/>
<path d="M21.0603 11C21.0603 13.7614 18.7947 16 16 16C13.2053 16 10.9397 13.7614 10.9397 11C10.9397 8.23858 13.2053 6 16 6C18.7947 6 21.0603 8.23858 21.0603 11Z" fill="#C9CBCD"/>
</svg>
